<svg width="39" height="39" viewBox="0 0 39 39" fill="none" xmlns="http://www.w3.org/2000/svg">
<path fill-rule="evenodd" clip-rule="evenodd" d="M36.0995 0H2.10945C0.94408 0 0 0.94408 0 2.10945V36.1011C0 37.2649 0.94408 38.209 2.10945 38.209H20.4099V23.4125H15.43V17.6462H20.4099V13.3938C20.4099 8.45851 23.4237 5.77114 27.8273 5.77114C29.9367 5.77114 31.7485 5.92876 32.277 5.99881V11.157L29.2235 11.1586C26.8291 11.1586 26.3658 12.2969 26.3658 13.9654V17.6478H32.0764L31.3329 23.4141H26.3658V38.209H36.1027C37.2649 38.209 38.209 37.2649 38.209 36.0995V2.10945C38.209 0.94408 37.2649 0 36.0995 0Z" fill="#352A58"/>
</svg>
