<svg width="39" height="32" viewBox="0 0 39 32" fill="none" xmlns="http://www.w3.org/2000/svg">
<path fill-rule="evenodd" clip-rule="evenodd" d="M38.4159 3.85961C37.0102 4.48369 35.4993 4.90399 33.9136 5.09344C35.5328 4.12389 36.7761 2.58757 37.3604 0.756734C35.8464 1.65464 34.1684 2.30737 32.3821 2.65921C30.954 1.13563 28.9146 0.183594 26.6603 0.183594C21.5992 0.183594 17.8802 4.90558 19.0233 9.80751C12.5103 9.48111 6.7344 6.36071 2.86733 1.61802C0.813599 5.1412 1.80226 9.75021 5.29201 12.0841C4.00883 12.0427 2.79887 11.6908 1.74335 11.1034C1.65738 14.7348 4.26037 18.1322 8.03032 18.8885C6.92703 19.1878 5.71868 19.2578 4.48962 19.0222C5.48624 22.1362 8.38057 24.4017 11.813 24.4654C8.51748 27.0493 4.36544 28.2035 0.207031 27.7131C3.67609 29.9372 7.79788 31.2347 12.2237 31.2347C26.7781 31.2347 35.001 18.9426 34.5043 7.91771C36.0359 6.81125 37.3652 5.43096 38.4159 3.85961Z" fill="#352A58"/>
</svg>
